{"accessors":[{"bufferView":2,"componentType":5126,"count":1681,"max":[1.129353642463684,1.2328401803970337,0.5263447761535645],"min":[-1.2351210117340088,-1.1293402910232544,-1.0781095027923584],"type":"VEC3"},{"bufferView":2,"byteOffset":20172,"componentType":5126,"count":1681,"max":[1,1,1],"min":[-1,-1,-1],"type":"VEC3"},{"bufferView":1,"componentType":5126,"count":1681,"max":[0.875,0.9652352929115295],"min":[0.03557182475924492,0.04999999701976776],"type":"VEC2"},{"bufferView":0,"componentType":5125,"count":2694,"type":"SCALAR"},{"bufferView":2,"byteOffset":40344,"componentType":5126,"count":536,"max":[1.129353642463684,1.2328401803970337,0.9287832975387573],"min":[-1.2351210117340088,-1.1293402910232544,-0.2934662103652954],"type":"VEC3"},{"bufferView":2,"byteOffset":46776,"componentType":5126,"count":536,"max":[1,1,1],"min":[-1,-1,0],"type":"VEC3"},{"bufferView":1,"byteOffset":13448,"componentType":5126,"count":536,"max":[0.5252249836921692,0.9946123957633972],"min":[0.005335530266165733,0.7320111989974976],"type":"VEC2"},{"bufferView":0,"byteOffset":10776,"componentType":5125,"count":966,"type":"SCALAR"},{"bufferView":2,"byteOffset":53208,"componentType":5126,"count":6,"max":[-0.06316132843494415,0.14964032173156738,1.2485893964767456],"min":[-0.06316132843494415,-0.07545726746320724,0.9332010746002197],"type":"VEC3"},{"bufferView":2,"byteOffset":53280,"componentType":5126,"count":6,"max":[-1,0,0],"min":[-1,0,0],"type":"VEC3"},{"bufferView":1,"byteOffset":17736,"componentType":5126,"count":6,"max":[0.5416667461395264,0.8750000596046448],"min":[0.4583333134651184,0.875],"type":"VEC2"},{"bufferView":0,"byteOffset":14640,"componentType":5125,"count":12,"type":"SCALAR"},{"bufferView":2,"byteOffset":53352,"componentType":5126,"count":56,"max":[0.7757949829101562,0.233796626329422,-1.074400782585144],"min":[-0.8908782601356506,-0.11141365021467209,-1.0778242349624634],"type":"VEC3"},{"bufferView":2,"byteOffset":54024,"componentType":5126,"count":56,"max":[1,0.9635186195373535,0.9669699668884277],"min":[-1,-1,-1],"type":"VEC3"},{"bufferView":1,"byteOffset":17784,"componentType":5126,"count":56,"max":[0.5,0.7908468246459961],"min":[0.2427656054496765,0.2916666567325592],"type":"VEC2"},{"bufferView":0,"byteOffset":14688,"componentType":5125,"count":84,"type":"SCALAR"},{"bufferView":2,"byteOffset":54696,"componentType":5126,"count":63,"max":[1.1193764209747314,0.233796626329422,-0.8736098408699036],"min":[-1.2288941144943237,-0.7872748970985413,-1.0781095027923584],"type":"VEC3"},{"bufferView":2,"byteOffset":55452,"componentType":5126,"count":63,"max":[1,0,0],"min":[-1,0,-1],"type":"VEC3"},{"bufferView":1,"byteOffset":18232,"componentType":5126,"count":63,"max":[0.25868386030197144,0.7722175121307373],"min":[0.24390190839767456,0.7685120105743408],"type":"VEC2"},{"bufferView":0,"byteOffset":15024,"componentType":5125,"count":96,"type":"SCALAR"},{"bufferView":2,"byteOffset":56208,"componentType":5126,"count":8,"max":[0.7757949829101562,0.8885863423347473,-1.074400782585144],"min":[-0.8908716440200806,0.5552529692649841,-1.074400782585144],"type":"VEC3"},{"bufferView":2,"byteOffset":56304,"componentType":5126,"count":8,"max":[0,0,-1],"min":[0,0,-1],"type":"VEC3"},{"bufferView":1,"byteOffset":18736,"componentType":5126,"count":8,"max":[0.5833333134651184,0.5],"min":[0.5416666865348816,0.2916666567325592],"type":"VEC2"},{"bufferView":0,"byteOffset":15408,"componentType":5125,"count":12,"type":"SCALAR"},{"bufferView":2,"byteOffset":56400,"componentType":5126,"count":8,"max":[0.28489649295806885,0,0.604745090007782],"min":[-0.28489649295806885,0,-0.5919094681739807],"type":"VEC3"},{"bufferView":2,"byteOffset":56496,"componentType":5126,"count":8,"max":[0,1,0],"min":[0,1,0],"type":"VEC3"},{"bufferView":1,"byteOffset":18800,"componentType":5126,"count":8,"max":[0.43136173486709595,0.9315265417098999],"min":[0.42898863554000854,0.9160938262939453],"type":"VEC2"},{"bufferView":0,"byteOffset":15456,"componentType":5125,"count":12,"type":"SCALAR"},{"bufferView":2,"byteOffset":56592,"componentType":5126,"count":8,"max":[0.28489649295806885,2.9802322387695312e-8,1.0817852020263672],"min":[-0.8201449513435364,0,-0.5919094681739807],"type":"VEC3"},{"bufferView":2,"byteOffset":56688,"componentType":5126,"count":8,"max":[0,1,0],"min":[0,1,-2.82188494793445e-8],"type":"VEC3"},{"bufferView":1,"byteOffset":18864,"componentType":5126,"count":8,"max":[1,1],"min":[0,0],"type":"VEC2"},{"bufferView":0,"byteOffset":15504,"componentType":5125,"count":12,"type":"SCALAR"},{"bufferView":2,"byteOffset":56784,"componentType":5126,"count":8,"max":[0.28489649295806885,2.9802322387695312e-8,1.0817852020263672],"min":[-0.8201449513435364,0,-0.5919094681739807],"type":"VEC3"},{"bufferView":2,"byteOffset":56880,"componentType":5126,"count":8,"max":[0,1,0],"min":[0,1,-2.82188494793445e-8],"type":"VEC3"},{"bufferView":1,"byteOffset":18928,"componentType":5126,"count":8,"max":[1,1],"min":[0,0],"type":"VEC2"},{"bufferView":0,"byteOffset":15552,"componentType":5125,"count":12,"type":"SCALAR"},{"bufferView":2,"byteOffset":56976,"componentType":5126,"count":8,"max":[0.8545494079589844,-1.1920928955078125e-7,0.6047451496124268],"min":[-0.28489649295806885,-1.1920928955078125e-7,-0.5919094085693359],"type":"VEC3"},{"bufferView":2,"byteOffset":57072,"componentType":5126,"count":8,"max":[0,1,0],"min":[0,1,0],"type":"VEC3"},{"bufferView":1,"byteOffset":18992,"componentType":5126,"count":8,"max":[1,1],"min":[0,0],"type":"VEC2"},{"bufferView":0,"byteOffset":15600,"componentType":5125,"count":12,"type":"SCALAR"},{"bufferView":2,"byteOffset":57168,"componentType":5126,"count":56,"max":[3.6916444301605225,-1.1920928244535389e-7,0.6047451496124268],"min":[-0.28489649295806885,-1.1920928955078125e-7,-3.0264534950256348],"type":"VEC3"},{"bufferView":2,"byteOffset":57840,"componentType":5126,"count":56,"max":[0,1,0],"min":[0,1,0],"type":"VEC3"},{"bufferView":1,"byteOffset":19056,"componentType":5126,"count":56,"max":[1,1],"min":[0,0],"type":"VEC2"},{"bufferView":0,"byteOffset":15648,"componentType":5125,"count":84,"type":"SCALAR"},{"bufferView":2,"byteOffset":58512,"componentType":5126,"count":56,"max":[3.6916444301605225,-1.1920928244535389e-7,0.6047451496124268],"min":[-0.28489649295806885,-1.1920928955078125e-7,-3.0264534950256348],"type":"VEC3"},{"bufferView":2,"byteOffset":59184,"componentType":5126,"count":56,"max":[0,1,0],"min":[0,1,0],"type":"VEC3"},{"bufferView":1,"byteOffset":19504,"componentType":5126,"count":56,"max":[1,1],"min":[0,0],"type":"VEC2"},{"bufferView":0,"byteOffset":15984,"componentType":5125,"count":84,"type":"SCALAR"},{"bufferView":2,"byteOffset":59856,"componentType":5126,"count":8,"max":[0.8545494079589844,-1.1920928955078125e-7,0.6047451496124268],"min":[-0.28489649295806885,-1.1920928955078125e-7,-0.5919094085693359],"type":"VEC3"},{"bufferView":2,"byteOffset":59952,"componentType":5126,"count":8,"max":[0,1,0],"min":[0,1,0],"type":"VEC3"},{"bufferView":1,"byteOffset":19952,"componentType":5126,"count":8,"max":[1,1],"min":[0,0],"type":"VEC2"},{"bufferView":0,"byteOffset":16320,"componentType":5125,"count":12,"type":"SCALAR"},{"bufferView":2,"byteOffset":60048,"componentType":5126,"count":8,"max":[0.28489649295806885,0,0.604745090007782],"min":[-0.28489649295806885,0,-0.5919094681739807],"type":"VEC3"},{"bufferView":2,"byteOffset":60144,"componentType":5126,"count":8,"max":[0,1,0],"min":[0,1,0],"type":"VEC3"},{"bufferView":1,"byteOffset":20016,"componentType":5126,"count":8,"max":[0.43136173486709595,0.9315265417098999],"min":[0.42898863554000854,0.9160938262939453],"type":"VEC2"},{"bufferView":0,"byteOffset":16368,"componentType":5125,"count":12,"type":"SCALAR"},{"bufferView":2,"byteOffset":60240,"componentType":5126,"count":8,"max":[0.28489649295806885,0,0.604745090007782],"min":[-0.28489649295806885,0,-0.5919094681739807],"type":"VEC3"},{"bufferView":2,"byteOffset":60336,"componentType":5126,"count":8,"max":[0,1,0],"min":[0,1,0],"type":"VEC3"},{"bufferView":1,"byteOffset":20080,"componentType":5126,"count":8,"max":[0.43136173486709595,0.9315265417098999],"min":[0.42898863554000854,0.9160938262939453],"type":"VEC2"},{"bufferView":0,"byteOffset":16416,"componentType":5125,"count":12,"type":"SCALAR"},{"bufferView":2,"byteOffset":60432,"componentType":5126,"count":8,"max":[0.28489649295806885,0,0.604745090007782],"min":[-0.28489649295806885,0,-0.5919094681739807],"type":"VEC3"},{"bufferView":2,"byteOffset":60528,"componentType":5126,"count":8,"max":[0,1,0],"min":[0,1,0],"type":"VEC3"},{"bufferView":1,"byteOffset":20144,"componentType":5126,"count":8,"max":[0.43136173486709595,0.9315265417098999],"min":[0.42898863554000854,0.9160938262939453],"type":"VEC2"},{"bufferView":0,"byteOffset":16464,"componentType":5125,"count":12,"type":"SCALAR"},{"bufferView":2,"byteOffset":60624,"componentType":5126,"count":8,"max":[0.28489649295806885,0,0.604745090007782],"min":[-0.28489649295806885,0,-0.5919094681739807],"type":"VEC3"},{"bufferView":2,"byteOffset":60720,"componentType":5126,"count":8,"max":[0,1,0],"min":[0,1,0],"type":"VEC3"},{"bufferView":1,"byteOffset":20208,"componentType":5126,"count":8,"max":[0.43136173486709595,0.9315265417098999],"min":[0.42898863554000854,0.9160938262939453],"type":"VEC2"},{"bufferView":0,"byteOffset":16512,"componentType":5125,"count":12,"type":"SCALAR"},{"bufferView":2,"byteOffset":60816,"componentType":5126,"count":8,"max":[0.28489649295806885,0,0.604745090007782],"min":[-0.28489649295806885,0,-0.5919094681739807],"type":"VEC3"},{"bufferView":2,"byteOffset":60912,"componentType":5126,"count":8,"max":[0,1,0],"min":[0,1,0],"type":"VEC3"},{"bufferView":1,"byteOffset":20272,"componentType":5126,"count":8,"max":[0.43136173486709595,0.9315265417098999],"min":[0.42898863554000854,0.9160938262939453],"type":"VEC2"},{"bufferView":0,"byteOffset":16560,"componentType":5125,"count":12,"type":"SCALAR"},{"bufferView":3,"componentType":5126,"count":21,"max":[0.8333333134651184],"min":[0],"type":"SCALAR"},{"bufferView":5,"componentType":5126,"count":21,"max":[-0.9376086592674255,0,0,0.3476924002170563],"min":[-0.9717185497283936,0,0,0.23614177107810974],"type":"VEC4"},{"bufferView":3,"byteOffset":84,"componentType":5126,"count":21,"max":[0.8333333134651184],"min":[0],"type":"SCALAR"},{"bufferView":5,"byteOffset":336,"componentType":5126,"count":21,"max":[0.0368022657930851,0.0368022657930851,0.7071068286895752,0.7071067094802856],"min":[0,0,0.7061483860015869,0.7061485052108765],"type":"VEC4"},{"bufferView":3,"byteOffset":168,"componentType":5126,"count":14,"max":[0.8333333134651184],"min":[0],"type":"SCALAR"},{"bufferView":4,"componentType":5126,"count":14,"max":[1.0916023254394531,1.0415840148925781,1.0415838956832886],"min":[1.0916023254394531,1.0415838956832886,1.041583776473999],"type":"VEC3"},{"bufferView":3,"byteOffset":224,"componentType":5126,"count":21,"max":[0.8333333134651184],"min":[0],"type":"SCALAR"},{"bufferView":5,"byteOffset":672,"componentType":5126,"count":21,"max":[0,0,0.7071068286895752,0.7071067094802856],"min":[-0.01747017726302147,-0.01747017540037632,0.7068908214569092,0.7068910598754883],"type":"VEC4"},{"bufferView":3,"byteOffset":308,"componentType":5126,"count":14,"max":[0.8333333134651184],"min":[0],"type":"SCALAR"},{"bufferView":4,"byteOffset":168,"componentType":5126,"count":14,"max":[1.0916023254394531,1.0415838956832886,1.041583776473999],"min":[1.0916023254394531,1.041583776473999,1.0415836572647095],"type":"VEC3"},{"bufferView":3,"byteOffset":364,"componentType":5126,"count":21,"max":[0.8333333134651184],"min":[0],"type":"SCALAR"},{"bufferView":5,"byteOffset":1008,"componentType":5126,"count":21,"max":[0.1325390785932541,0.9880638122558594,-0.008049328811466694,0.15048830211162567],"min":[-0.17631930112838745,0.9734092950820923,-0.05269790440797806,0.13641411066055298],"type":"VEC4"},{"bufferView":3,"byteOffset":448,"componentType":5126,"count":18,"max":[0.8333333134651184],"min":[0],"type":"SCALAR"},{"bufferView":4,"byteOffset":336,"componentType":5126,"count":18,"max":[1,1,0.9161437153816223],"min":[1,1,0.9161435961723328],"type":"VEC3"},{"bufferView":3,"byteOffset":520,"componentType":5126,"count":21,"max":[0.8333333134651184],"min":[0],"type":"SCALAR"},{"bufferView":5,"byteOffset":1344,"componentType":5126,"count":21,"max":[0.9882615208625793,0.15662012994289398,-0.12954719364643097,0.05845271423459053],"min":[0.9669744372367859,-0.2115684598684311,-0.14857664704322815,0.007042094133794308],"type":"VEC4"},{"bufferView":3,"byteOffset":604,"componentType":5126,"count":17,"max":[0.8333333134651184],"min":[0],"type":"SCALAR"},{"bufferView":4,"byteOffset":552,"componentType":5126,"count":17,"max":[1,0.9999999403953552,0.9161437153816223],"min":[1,0.9999999403953552,0.9161435961723328],"type":"VEC3"},{"bufferView":3,"byteOffset":672,"componentType":5126,"count":21,"max":[0.8333333134651184],"min":[0],"type":"SCALAR"},{"bufferView":5,"byteOffset":1680,"componentType":5126,"count":21,"max":[-0.9376086592674255,0,0,0.3476924002170563],"min":[-0.9717185497283936,0,0,0.23614177107810974],"type":"VEC4"},{"bufferView":3,"byteOffset":756,"componentType":5126,"count":21,"max":[0.8333333134651184],"min":[0],"type":"SCALAR"},{"bufferView":5,"byteOffset":2016,"componentType":5126,"count":21,"max":[-0.9376086592674255,0,0,0.3476924002170563],"min":[-0.9962376952171326,0,0,0.08666324615478516],"type":"VEC4"},{"bufferView":3,"byteOffset":840,"componentType":5126,"count":21,"max":[0.8333333134651184],"min":[0],"type":"SCALAR"},{"bufferView":5,"byteOffset":2352,"componentType":5126,"count":21,"max":[-0.9376086592674255,0,0,0.3476924002170563],"min":[-0.9717185497283936,0,0,0.23614177107810974],"type":"VEC4"},{"bufferView":3,"byteOffset":924,"componentType":5126,"count":21,"max":[0.8333333134651184],"min":[0],"type":"SCALAR"},{"bufferView":5,"byteOffset":2688,"componentType":5126,"count":21,"max":[-0.901375412940979,0,0,0.43303850293159485],"min":[-0.9376086592674255,0,0,0.3476924002170563],"type":"VEC4"},{"bufferView":3,"byteOffset":1008,"componentType":5126,"count":21,"max":[0.8333333134651184],"min":[0],"type":"SCALAR"},{"bufferView":5,"byteOffset":3024,"componentType":5126,"count":21,"max":[-0.9376086592674255,0,0,0.3476924002170563],"min":[-0.9717185497283936,0,0,0.23614177107810974],"type":"VEC4"}],"animations":[{"channels":[{"sampler":0,"target":{"node":10,"path":"rotation"}},{"sampler":1,"target":{"node":12,"path":"rotation"}},{"sampler":2,"target":{"node":12,"path":"scale"}},{"sampler":3,"target":{"node":14,"path":"rotation"}},{"sampler":4,"target":{"node":14,"path":"scale"}},{"sampler":5,"target":{"node":16,"path":"rotation"}},{"sampler":6,"target":{"node":16,"path":"scale"}},{"sampler":7,"target":{"node":19,"path":"rotation"}},{"sampler":8,"target":{"node":19,"path":"scale"}},{"sampler":9,"target":{"node":22,"path":"rotation"}},{"sampler":10,"target":{"node":24,"path":"rotation"}},{"sampler":11,"target":{"node":26,"path":"rotation"}},{"sampler":12,"target":{"node":28,"path":"rotation"}},{"sampler":13,"target":{"node":30,"path":"rotation"}}],"name":"Animation","samplers":[{"input":72,"interpolation":"LINEAR","output":73},{"input":74,"interpolation":"LINEAR","output":75},{"input":76,"interpolation":"LINEAR","output":77},{"input":78,"interpolation":"LINEAR","output":79},{"input":80,"interpolation":"LINEAR","output":81},{"input":82,"interpolation":"LINEAR","output":83},{"input":84,"interpolation":"LINEAR","output":85},{"input":86,"interpolation":"LINEAR","output":87},{"input":88,"interpolation":"LINEAR","output":89},{"input":90,"interpolation":"LINEAR","output":91},{"input":92,"interpolation":"LINEAR","output":93},{"input":94,"interpolation":"LINEAR","output":95},{"input":96,"interpolation":"LINEAR","output":97},{"input":98,"interpolation":"LINEAR","output":99}]}],"asset":{"extras":{"author":"kuzneciv (https://sketchfab.com/kuznecivBlender)","license":"CC-BY-4.0 (http://creativecommons.org/licenses/by/4.0/)","source":"https://sketchfab.com/3d-models/bee-minecraft-b883baf691204b4d9a618e5e5841adf1","title":"Bee minecraft"},"generator":"Sketchfab-12.68.0","version":"2.0"},"bufferViews":[{"buffer":0,"byteLength":16608,"name":"floatBufferViews","target":34963},{"buffer":0,"byteLength":20336,"byteOffset":16608,"byteStride":8,"name":"floatBufferViews","target":34962},{"buffer":0,"byteLength":61008,"byteOffset":36944,"byteStride":12,"name":"floatBufferViews","target":34962},{"buffer":0,"byteLength":1092,"byteOffset":97952,"name":"floatBufferViews"},{"buffer":0,"byteLength":756,"byteOffset":99044,"byteStride":12,"name":"floatBufferViews"},{"buffer":0,"byteLength":3360,"byteOffset":99800,"byteStride":16,"name":"floatBufferViews"}],"buffers":[{"byteLength":103160,"uri":"data:application/octet-stream;base64,"}],"images":[{"uri":"data:application/octet-stream;base64,"}],"materials":[{"doubleSided":true,"name":"Material.001","pbrMetallicRoughness":{"baseColorTexture":{"index":0},"metallicFactor":0}},{"doubleSided":true,"name":"Material.002","pbrMetallicRoughness":{"baseColorTexture":{"index":0},"metallicFactor":0}},{"doubleSided":true,"name":"Material.003","pbrMetallicRoughness":{"baseColorFactor":[0,0,0,1],"metallicFactor":0,"roughnessFactor":0.279412}},{"doubleSided":true,"name":"Material.004","pbrMetallicRoughness":{"baseColorTexture":{"index":0},"metallicFactor":0,"roughnessFactor":0.1}},{"doubleSided":true,"name":"Material.005","pbrMetallicRoughness":{"baseColorTexture":{"index":0},"metallicFactor":0,"roughnessFactor":0}},{"doubleSided":true,"name":"Material.010","pbrMetallicRoughness":{"baseColorFactor":[0.0251869,0.0231534,0.0231534,1]}},{"doubleSided":true,"name":"Material.013","pbrMetallicRoughness":{"baseColorTexture":{"index":0},"metallicFactor":0,"roughnessFactor":0.5}},{"doubleSided":true,"name":"Material.009","pbrMetallicRoughness":{"baseColorFactor":[0.0295568,0.0241576,0.0382044,1],"metallicFactor":0.933824}},{"doubleSided":true,"name":"Material.014","pbrMetallicRoughness":{"baseColorFactor":[0.114435,0.031896,0.0185002,1],"metallicFactor":0,"roughnessFactor":0.5}},{"doubleSided":true,"name":"Material.011","pbrMetallicRoughness":{"metallicFactor":0,"roughnessFactor":0.169118}}],"meshes":[{"name":"Object_0","primitives":[{"attributes":{"NORMAL":1,"POSITION":0,"TEXCOORD_0":2},"indices":3,"material":0,"mode":4}]},{"name":"Object_1","primitives":[{"attributes":{"NORMAL":5,"POSITION":4,"TEXCOORD_0":6},"indices":7,"material":1,"mode":4}]},{"name":"Object_2","primitives":[{"attributes":{"NORMAL":9,"POSITION":8,"TEXCOORD_0":10},"indices":11,"material":2,"mode":4}]},{"name":"Object_3","primitives":[{"attributes":{"NORMAL":13,"POSITION":12,"TEXCOORD_0":14},"indices":15,"material":3,"mode":4}]},{"name":"Object_4","primitives":[{"attributes":{"NORMAL":17,"POSITION":16,"TEXCOORD_0":18},"indices":19,"material":4,"mode":4}]},{"name":"Object_5","primitives":[{"attributes":{"NORMAL":21,"POSITION":20,"TEXCOORD_0":22},"indices":23,"material":5,"mode":4}]},{"name":"Object_6","primitives":[{"attributes":{"NORMAL":25,"POSITION":24,"TEXCOORD_0":26},"indices":27,"material":6,"mode":4}]},{"name":"Object_7","primitives":[{"attributes":{"NORMAL":29,"POSITION":28,"TEXCOORD_0":30},"indices":31,"material":7,"mode":4}]},{"name":"Object_8","primitives":[{"attributes":{"NORMAL":33,"POSITION":32,"TEXCOORD_0":34},"indices":35,"material":7,"mode":4}]},{"name":"Object_9","primitives":[{"attributes":{"NORMAL":37,"POSITION":36,"TEXCOORD_0":38},"indices":39,"material":8,"mode":4}]},{"name":"Object_10","primitives":[{"attributes":{"NORMAL":41,"POSITION":40,"TEXCOORD_0":42},"indices":43,"material":9,"mode":4}]},{"name":"Object_11","primitives":[{"attributes":{"NORMAL":45,"POSITION":44,"TEXCOORD_0":46},"indices":47,"material":9,"mode":4}]},{"name":"Object_12","primitives":[{"attributes":{"NORMAL":49,"POSITION":48,"TEXCOORD_0":50},"indices":51,"material":8,"mode":4}]},{"name":"Object_13","primitives":[{"attributes":{"NORMAL":53,"POSITION":52,"TEXCOORD_0":54},"indices":55,"material":6,"mode":4}]},{"name":"Object_14","primitives":[{"attributes":{"NORMAL":57,"POSITION":56,"TEXCOORD_0":58},"indices":59,"material":6,"mode":4}]},{"name":"Object_15","primitives":[{"attributes":{"NORMAL":61,"POSITION":60,"TEXCOORD_0":62},"indices":63,"material":6,"mode":4}]},{"name":"Object_16","primitives":[{"attributes":{"NORMAL":65,"POSITION":64,"TEXCOORD_0":66},"indices":67,"material":6,"mode":4}]},{"name":"Object_17","primitives":[{"attributes":{"NORMAL":69,"POSITION":68,"TEXCOORD_0":70},"indices":71,"material":6,"mode":4}]}],"nodes":[{"children":[1],"matrix":[1,0,0,0,0,2.220446049250313e-16,-1,0,0,1,2.220446049250313e-16,0,0,0,0,1],"name":"Sketchfab_model"},{"children":[2],"name":"root"},{"children":[3,10,12,14,16,19,22,24,26,28,30],"matrix":[1,0,0,0,0,2.220446049250313e-16,1,0,0,-1,2.220446049250313e-16,0,0,0,0,1],"name":"GLTF_SceneRootNode"},{"children":[4,5,6,7,8,9],"matrix":[1.7801588773727417,0,0,0,0,1.7801588773727417,0,0,0,0,2.9669313430786133,0,0,0,0,1],"name":"Bee_0"},{"mesh":0,"name":"Object_4"},{"mesh":1,"name":"Object_5"},{"mesh":2,"name":"Object_6"},{"mesh":3,"name":"Object_7"},{"mesh":4,"name":"Object_8"},{"mesh":5,"name":"Object_9"},{"children":[11],"name":"leg.004_1","rotation":[-0.9376085996627808,0,0,0.347692608833313],"translation":[1.0206413269042969,-2.0574207305908203,-0.7995042204856873]},{"mesh":6,"name":"Object_11"},{"children":[13],"name":"USR_2","rotation":[0,0,0.7071067690849304,0.7071068286895752],"scale":[1.0916023254394531,1.0415838956832886,1.041583776473999],"translation":[0.7904970645904541,1.883733868598938,-4.264326095581055]},{"mesh":7,"name":"Object_13"},{"children":[15],"name":"USL_3","rotation":[0,0,0.7071067690849304,0.7071068286895752],"scale":[1.0916023254394531,1.0415838956832886,1.041583776473999],"translation":[-1.0519769191741943,1.8837337493896484,-4.264326095581055]},{"mesh":8,"name":"Object_15"},{"children":[17,18],"name":"RingL_4","rotation":[0.1325390338897705,0.9803302884101868,-0.052697788923978806,0.13641418516635895],"scale":[1,1,0.9161437153816223],"translation":[-1.7282696962356567,2.2276830673217773,-1.2419642210006714]},{"mesh":9,"name":"Object_17"},{"mesh":10,"name":"Object_18"},{"children":[20,21],"name":"RingR_5","rotation":[0.9773796200752258,0.15662024915218353,-0.12954726815223694,0.05845261365175247],"scale":[1,1,0.9161437153816223],"translation":[1.4795863628387451,2.2276830673217773,-1.2419642210006714]},{"mesh":11,"name":"Object_20"},{"mesh":12,"name":"Object_21"},{"children":[23],"name":"leg.001_7","rotation":[-0.9376085996627808,0,0,0.347692608833313],"translation":[-1.1908488273620605,-2.0574207305908203,-0.7995042204856873]},{"mesh":13,"name":"Object_23"},{"children":[25],"name":"leg.002_8","rotation":[-0.9376085996627808,0,0,0.347692608833313],"translation":[1.0206413269042969,-2.0574207305908203,0.3749909996986389]},{"mesh":14,"name":"Object_25"},{"children":[27],"name":"leg.003_9","rotation":[-0.9376085996627808,0,0,0.347692608833313],"translation":[-1.1908488273620605,-2.0574207305908203,0.3749909996986389]},{"mesh":15,"name":"Object_27"},{"children":[29],"name":"leg.005_10","rotation":[-0.9376085996627808,0,0,0.347692608833313],"translation":[1.0206413269042969,-2.0574207305908203,1.5718576908111572]},{"mesh":16,"name":"Object_29"},{"children":[31],"name":"leg.006_11","rotation":[-0.9376085996627808,0,0,0.347692608833313],"translation":[-1.1908488273620605,-2.0574207305908203,1.5718576908111572]},{"mesh":17,"name":"Object_31"}],"samplers":[{"magFilter":9729,"minFilter":9987,"wrapS":10497,"wrapT":10497}],"scene":0,"scenes":[{"name":"Sketchfab_Scene","nodes":[0]}],"textures":[{"sampler":0,"source":0}]}